HIERARCHY
ROOT pelvis
{
  OFFSET 0 100 0
  CHANNELS 6 Xposition Yposition Zposition Zrotation Xrotation Yrotation
  JOINT pelvis_right_femur
  {
    OFFSET -10.78128 -3.44521 -0.5502486
    CHANNELS 3 Zrotation Xrotation Yrotation
    JOINT right_femur_tibia
    {
      OFFSET -0.8047443 -44.0398 -0.1307829
      CHANNELS 3 Zrotation Xrotation Yrotation
      JOINT right_tibia_foot
      {
        OFFSET 3.006224 -47.83518 -5
        CHANNELS 3 Zrotation Xrotation Yrotation
        End Site
        {
          OFFSET 0 -5 15
        }
      }
    }
  }
  JOINT pelvis_left_femur
  {
    OFFSET 10.78128 -3.44521 -0.5502486
    CHANNELS 3 Zrotation Xrotation Yrotation
    JOINT left_femur_tibia
    {
      OFFSET 0.8047443 -44.0398 -0.1307829
      CHANNELS 3 Zrotation Xrotation Yrotation
      JOINT left_tibia_foot
      {
        OFFSET -4.370144 -48.10324 -4.275266
        CHANNELS 3 Zrotation Xrotation Yrotation
        End Site
        {
          OFFSET 0 -5 15
        }
      }
    }
  }
  JOINT pelvis_spine1
  {
    OFFSET 0 6.468898 -3.129235
    CHANNELS 3 Zrotation Xrotation Yrotation
    JOINT spine1
    {
      OFFSET 0 23.15396 4.99043
      CHANNELS 3 Zrotation Xrotation Yrotation
      JOINT spine2
      {
        OFFSET 0 20.79997 -5.064912
        CHANNELS 3 Zrotation Xrotation Yrotation
        JOINT neck
        {
          OFFSET 0 14.38658 9.616178
          CHANNELS 3 Zrotation Xrotation Yrotation
          End Site
          {
            OFFSET 0 20 0
          }
        }
      }
      JOINT right_manubrium
      {
        OFFSET -5.722621 16.35077 3.967754
        CHANNELS 3 Zrotation Xrotation Yrotation
        JOINT right_clavicle
        {
          OFFSET -13.16364 1.694482 -4.693211
          CHANNELS 3 Zrotation Xrotation Yrotation
          JOINT right_humerus
          {
            OFFSET -28.5034 -0.3100689 -2.792744
            CHANNELS 3 Zrotation Xrotation Yrotation
            JOINT right_radius
            {
              OFFSET -25.15693 0.02248979 -1.271978
              CHANNELS 3 Zrotation Xrotation Yrotation
              End Site
              {
                OFFSET -15 0 0
              }
            }
          }
        }
      }
      JOINT left_manubrium
      {
        OFFSET 5.722621 16.35077 3.967754
        CHANNELS 3 Zrotation Xrotation Yrotation
        JOINT left_clavicle
        {
          OFFSET 13.16364 1.694482 -4.693211
          CHANNELS 3 Zrotation Xrotation Yrotation
          JOINT left_humerus
          {
            OFFSET 29.39168 -1.063119 -2.237045
            CHANNELS 3 Zrotation Xrotation Yrotation
            JOINT left_radius
            {
              OFFSET 24.59957 -0.9528479 0.9047498
              CHANNELS 3 Zrotation Xrotation Yrotation
              End Site
              {
                OFFSET 15 -0 -0
              }
            }
          }
        }
      }
    }
  }
}
MOTION
Frames: 7
Frame Time: 0.0416666666667
-1602.337 128.2484 526.5318 1.484558 12.40645 173.2448 7.405543 4.391426 0.4912773 -0 15.82598 -0 -6.42624 -8.212292 -5.843829 4.354546 -8.533739 -0.1661042 -0 20.95637 -0 7.00194 -3.966785 8.209159 2.282095 -4.739843 7.569327 0.4348192 19.38746 -7.272551 1.344675 17.91464 -1.400504 -2.249803 -16.44963 1.447055 -0.8639968 -33.08336 16.00397 93.03399 7.353668 -13.51159 -0 0 28.13684 -28.79449 23.49359 20.47321 -1.794034 -23.66793 -13.59996 -90.05534 9.885029 36.42492 0 0 -22.09776 -2.062863 16.53047 15.65215
-1602.785 128.1989 520.5013 1.576835 12.39523 172.8151 7.405543 4.391426 0.4912773 -0 15.82598 -0 -6.42624 -8.212292 -5.843829 4.354546 -8.533739 -0.1661042 -0 20.95637 -0 7.00194 -3.966785 8.209159 2.282095 -4.739843 7.569327 0.4348192 19.38746 -7.272551 1.344675 17.91464 -1.400504 -2.249803 -16.44963 1.447055 -0.8639968 -33.08336 16.00397 93.03399 7.353668 -13.51159 -0 0 28.13684 -28.79449 23.49359 20.47321 -1.794034 -23.66793 -13.59996 -90.05534 9.885029 36.42492 0 0 -22.09776 -2.062863 16.53047 15.65215
-1603.188 128.1493 514.4678 1.66902 12.38334 172.3855 7.405543 4.391426 0.4912773 -0 15.82598 -0 -6.42624 -8.212292 -5.843829 4.354546 -8.533739 -0.1661042 -0 20.95637 -0 7.00194 -3.966785 8.209159 2.282095 -4.739843 7.569327 0.4348192 19.38746 -7.272551 1.344675 17.91464 -1.400504 -2.249803 -16.44963 1.447055 -0.8639968 -33.08336 16.00397 93.03399 7.353668 -13.51159 -0 0 28.13684 -28.79449 23.49359 20.47321 -1.794034 -23.66793 -13.59996 -90.05534 9.885029 36.42492 0 0 -22.09776 -2.062863 16.53047 15.65215
-1603.547 128.0997 508.4315 1.761107 12.37078 171.9559 7.405543 4.391426 0.4912773 -0 15.82598 -0 -6.42624 -8.212292 -5.843829 4.354546 -8.533739 -0.1661042 -0 20.95637 -0 7.00194 -3.966785 8.209159 2.282095 -4.739843 7.569327 0.4348192 19.38746 -7.272551 1.344675 17.91464 -1.400504 -2.249803 -16.44963 1.447055 -0.8639968 -33.08336 16.00397 93.03399 7.353668 -13.51159 -0 0 28.13684 -28.79449 23.49359 20.47321 -1.794034 -23.66793 -13.59996 -90.05534 9.885029 36.42492 0 0 -22.09776 -2.062863 16.53047 15.65215
-1603.862 128.0502 502.3927 1.85309 12.35754 171.5263 7.405543 4.391426 0.4912773 -0 15.82598 -0 -6.42624 -8.212292 -5.843829 4.354546 -8.533739 -0.1661042 -0 20.95637 -0 7.00194 -3.966785 8.209159 2.282095 -4.739843 7.569327 0.4348192 19.38746 -7.272551 1.344675 17.91464 -1.400504 -2.249803 -16.44963 1.447055 -0.8639968 -33.08336 16.00397 93.03399 7.353668 -13.51159 -0 0 28.13684 -28.79449 23.49359 20.47321 -1.794034 -23.66793 -13.59996 -90.05534 9.885029 36.42492 0 0 -22.09776 -2.062863 16.53047 15.65215
-1604.133 128.0006 496.3517 1.944964 12.34363 171.0967 7.405543 4.391426 0.4912773 -0 15.82598 -0 -6.42624 -8.212292 -5.843829 4.354546 -8.533739 -0.1661042 -0 20.95637 -0 7.00194 -3.966785 8.209159 2.282095 -4.739843 7.569327 0.4348192 19.38746 -7.272551 1.344675 17.91464 -1.400504 -2.249803 -16.44963 1.447055 -0.8639968 -33.08336 16.00397 93.03399 7.353668 -13.51159 -0 0 28.13684 -28.79449 23.49359 20.47321 -1.794034 -23.66793 -13.59996 -90.05534 9.885029 36.42492 0 0 -22.09776 -2.062863 16.53047 15.65215
-1604.359 127.951 490.309 2.036724 12.32904 170.6673 7.405543 4.391426 0.4912773 -0 15.82598 -0 -6.42624 -8.212292 -5.843829 4.354546 -8.533739 -0.1661042 -0 20.95637 -0 7.00194 -3.966785 8.209159 2.282095 -4.739843 7.569327 0.4348192 19.38746 -7.272551 1.344675 17.91464 -1.400504 -2.249803 -16.44963 1.447055 -0.8639968 -33.08336 16.00397 93.03399 7.353668 -13.51159 -0 0 28.13684 -28.79449 23.49359 20.47321 -1.794034 -23.66793 -13.59996 -90.05534 9.885029 36.42492 0 0 -22.09776 -2.062863 16.53047 15.65215
